<svg width="89" height="87" viewBox="0 0 89 87" fill="none" xmlns="http://www.w3.org/2000/svg">
<g clip-path="url(#clip0_13_2990)">
<path d="M0.399963 75.7821C0.399963 81.9781 5.48024 87 11.7468 87H77.0528C83.3204 87 88.4 81.9774 88.4 75.7821V11.2182C88.4 5.02187 83.3197 0 77.0531 0H11.7472C5.47956 0 0.399963 5.02255 0.399963 11.2179V75.7818V75.7821Z" fill="#563D7C"/>
<path d="M36.8918 38.4832V26.1629H47.8612C48.9062 26.1629 49.9134 26.2489 50.8834 26.4212C51.8535 26.5931 52.7118 26.9003 53.4581 27.3431C54.2041 27.786 54.8012 28.4007 55.2491 29.1875C55.6966 29.9746 55.9208 30.9829 55.9208 32.2121C55.9208 34.4255 55.2491 36.0241 53.9057 37.0076C52.5627 37.9915 50.8463 38.4832 48.7567 38.4832H36.8918ZM25.1758 17.1621V69.8379H50.9955C53.3835 69.8379 55.7093 69.5429 57.9729 68.9526C60.2365 68.3623 62.2513 67.4525 64.0174 66.223C65.7833 64.9934 67.1889 63.407 68.2335 61.4645C69.2785 59.5216 69.8007 57.2222 69.8007 54.5663C69.8007 51.2709 68.9922 48.4553 67.3755 46.1192C65.7585 43.7828 63.3083 42.1474 60.0248 41.2129C62.4128 40.0819 64.2165 38.6307 65.4354 36.8601C66.654 35.0895 67.2635 32.8765 67.2635 30.2203C67.2635 27.7612 66.853 25.6956 66.0322 24.0232C65.2113 22.3512 64.0546 21.0108 62.562 20.0025C61.0698 18.9942 59.2788 18.2686 57.1892 17.8262C55.0999 17.3833 52.7864 17.1621 50.2492 17.1621H25.1758ZM36.8918 60.8371V46.3771H49.6521C52.1893 46.3771 54.2292 46.9548 55.7716 48.111C57.3136 49.2668 58.085 51.1971 58.085 53.9023C58.085 55.2797 57.8485 56.4107 57.3758 57.296C56.9032 58.1813 56.269 58.8823 55.4728 59.3986C54.6771 59.9151 53.7565 60.2839 52.7118 60.5054C51.6668 60.7263 50.5727 60.8371 49.4283 60.8371H36.8918Z" fill="white"/>
</g>
<defs>
<clipPath id="clip0_13_2990">
<rect width="88" height="87" fill="white" transform="translate(0.399963)"/>
</clipPath>
</defs>
</svg>
