<svg width="121" height="119" viewBox="0 0 121 119" fill="none" xmlns="http://www.w3.org/2000/svg">
<path d="M22.3653 101.154L13.9428 7.4375H106.523L98.089 101.139L60.1765 111.562L22.3653 101.154Z" fill="#1572B6"/>
<path d="M60.2328 103.597L90.8703 95.174L98.0778 15.1019H60.2328V103.597Z" fill="#33A9DC"/>
<path d="M60.2328 49.054H75.5703L76.6278 37.2842H60.2328V25.7896H89.2953L89.0178 28.8724L86.1715 60.5487H60.2328V49.054Z" fill="white"/>
<path d="M60.304 78.9045L60.2515 78.9193L47.344 75.4609L46.519 66.2942H34.8828L36.5065 84.3413L60.2478 90.8788L60.304 90.864V78.9045Z" fill="#EBEBEB"/>
<path d="M74.584 60.0615L73.189 75.4534L60.2628 78.9119V90.8714L84.0228 84.3412L84.199 82.4001L86.2128 60.0615H74.584Z" fill="white"/>
<path d="M60.274 25.7896V37.2842H32.2765L32.044 34.6997L31.5153 28.8724L31.2378 25.7896H60.274ZM60.2328 49.054V60.5487H47.4865L47.254 57.9642L46.729 52.1369L46.4515 49.054H60.2328Z" fill="#EBEBEB"/>
</svg>
