<svg width="106" height="105" viewBox="0 0 106 105" fill="none" xmlns="http://www.w3.org/2000/svg">
<g clip-path="url(#clip0_13_2984)">
<path d="M103.62 47.8219L57.7758 1.98038C55.1372 -0.6598 50.8552 -0.6598 48.2134 1.98038L38.6937 11.5001L50.7699 23.5763C53.5762 22.6281 56.7943 23.2642 59.0313 25.5012C61.2789 27.7525 61.9106 30.9981 60.9393 33.8134L72.5775 45.452C75.3932 44.482 78.6421 45.1095 80.891 47.3621C84.034 50.5039 84.034 55.596 80.891 58.7399C77.7471 61.8841 72.655 61.8841 69.5095 58.7399C67.1454 56.3733 66.5613 52.9013 67.7582 49.9888L56.9046 39.1352L56.9034 67.6973C57.6902 68.0863 58.4088 68.6002 59.0313 69.2189C62.1743 72.3607 62.1743 77.4532 59.0313 80.5995C55.8874 83.7422 50.7929 83.7422 47.6535 80.5995C44.5105 77.4532 44.5105 72.3611 47.6535 69.2193C48.4067 68.4658 49.3019 67.869 50.2872 67.4635V38.6352C49.3004 38.2324 48.4048 37.6353 47.6535 36.8793C45.2722 34.5013 44.6996 31.0071 45.9198 28.0831L34.0154 16.1775L2.58106 47.6099C-0.0603455 50.2525 -0.0603455 54.5349 2.58106 57.1755L48.4259 103.018C51.0652 105.658 55.3464 105.658 57.9891 103.018L103.619 57.3884C106.26 54.747 106.26 50.4621 103.619 47.8219" fill="#DE4C36"/>
</g>
<defs>
<clipPath id="clip0_13_2984">
<rect width="105" height="105" fill="white" transform="translate(0.600006)"/>
</clipPath>
</defs>
</svg>
