<svg width="121" height="120" viewBox="0 0 121 120" fill="none" xmlns="http://www.w3.org/2000/svg">
<path d="M67.8306 119.745C66.2668 119.471 64.6468 118.729 63.7281 117.908C63.1044 117.253 62.7485 116.389 62.7306 115.485C62.7306 114.566 63.1993 113.276 63.9418 111.99C64.3918 111.266 64.7443 110.486 64.9956 109.665C65.1531 109.099 65.4831 108.18 65.7381 107.595L66.1881 106.523L66.3043 99.3563C66.3643 95.3925 66.4806 91.7213 66.5781 91.1513C66.8331 89.5088 67.2606 87.9075 67.8268 86.3475L68.2581 85.3125L67.6318 84.9413C67.0656 84.5888 66.5968 84.1013 64.7406 81.8925C62.4568 79.1963 59.4493 77.7113 55.1893 77.205C53.8018 77.07 52.3956 76.9688 50.9893 76.9125C44.7381 76.62 41.1643 75.3113 37.9431 72.1463C35.5393 69.7838 34.2906 67.0275 33.7843 62.9663C33.1018 57.4763 32.3406 54.6638 30.9343 52.38C30.5877 51.816 30.1885 51.2861 29.7418 50.7975L29.1756 50.2313L27.9268 51.0338C27.2443 51.4838 26.2843 52.05 25.8156 52.305C24.2518 53.1638 22.7668 54.12 21.3418 55.155C17.8468 57.6938 14.0368 60.8775 11.9481 62.9663C11.0106 63.9038 10.5231 64.3125 10.3056 64.275C8.88058 64.0613 9.97183 57.8888 12.2968 53.2388C15.2668 47.2425 20.2656 41.715 26.0481 37.9838C30.7956 34.9163 38.4718 30.6975 42.0231 29.2125C48.3306 26.5763 56.4943 23.7225 62.0818 22.2C63.2556 21.8663 63.9756 21.5738 64.4631 21.2438C65.5581 20.4825 66.6306 20.1113 67.8606 20.0925C68.8956 20.0738 68.9931 20.055 69.9906 19.3875C71.1643 18.6263 71.5131 18.585 72.6868 18.9975L73.4481 19.2713L74.3856 18.6263L75.3231 18L76.6693 18.0188C77.7043 18.0375 78.1731 18 78.6231 17.805C79.1893 17.55 79.2081 17.5125 79.3656 16.575C79.7181 14.5425 79.7556 13.5263 79.5418 12.2963C79.2681 10.6763 79.2306 4.3875 79.5043 3.15375C79.7968 1.82625 79.9918 1.5525 80.9893 1.065C82.4743 0.341252 83.5881 0.127502 86.1456 0.127502C89.2693 0.127502 90.8518 0.558753 92.0256 1.69125C93.0793 2.7075 93.2556 5.08875 92.7081 10.6763C92.3743 13.8975 92.3368 14.7975 92.4343 16.905C92.4718 18.2513 92.5693 19.5225 92.6106 19.6988C92.6893 20.0325 92.7681 20.0513 93.9006 20.07C95.0143 20.0888 95.2093 20.1488 96.2631 20.6963C97.2793 21.225 98.0406 21.87 98.1981 22.3388C98.2168 22.4363 98.3931 22.4363 98.7043 22.3388C99.3081 22.1625 99.8368 22.3575 100.268 22.8863C100.523 23.22 100.677 23.2763 101.266 23.2763C102.068 23.2763 102.361 23.4713 103.024 24.45C103.335 24.8893 103.76 25.2344 104.254 25.4475C105.349 25.995 106.834 27.5175 107.401 28.7288C108.278 30.525 108.454 32.6138 107.907 34.4888C107.712 35.1938 107.712 35.2125 108.121 35.895C108.979 37.3613 109.294 39.1575 108.942 40.68L108.747 41.58L109.332 42.165C112.242 45.075 111.811 49.8225 108.259 54.06C107.862 54.544 107.527 55.0756 107.262 55.6425C106.579 57.4575 105.796 58.7288 104.783 59.7825L103.748 60.8363H102.694C101.641 60.8363 100.156 60.4838 99.2556 60.015C98.8843 59.82 98.8656 59.82 98.9443 60.0525C99.1806 60.9113 99.7656 64.4063 99.9606 66.3413C100.272 69.3113 100.174 73.6275 99.7656 75.4838C99.4669 76.8586 98.9664 78.1816 98.2806 79.41C97.8906 80.0363 97.8718 80.1713 97.9468 80.9325C98.0631 82.005 97.8118 83.805 97.3806 84.9938C96.8518 86.3813 96.6568 87.0263 96.5406 87.7275C96.4431 88.3313 96.4431 88.3313 96.8743 88.3313C97.4406 88.3313 97.7518 88.665 97.7518 89.3288C97.7518 89.6213 97.4968 91.2038 97.1856 92.8238C96.3268 97.3763 96.2668 97.8825 96.2668 102.296C96.2481 106.849 96.2481 106.808 97.2831 107.49L99.6081 108.994C101.608 110.321 103.75 111.422 105.994 112.275C109.257 113.565 109.707 113.895 109.707 114.99C109.707 115.478 109.609 115.654 109.201 116.044C107.952 117.255 105.488 117.529 100.527 117C97.9488 116.758 95.3611 116.635 92.7718 116.629C85.9356 116.531 84.9381 116.295 84.0418 114.596C83.5356 113.621 83.6331 112.35 84.3343 110.261C84.6456 109.343 84.9193 108.405 85.1556 107.449C85.6243 105.184 85.3131 102.488 84.2181 99.4425L83.2806 96.8438C82.3618 94.2075 81.8556 89.3813 82.4031 88.29C82.5006 88.0763 82.6768 88.035 83.1456 88.0538L83.7306 88.1138L84.2181 87.0975C84.5893 86.295 84.9981 85.77 86.1118 84.6563L87.5368 83.2313L87.4581 82.3125C87.3981 81.435 86.2468 77.175 86.0893 77.1938C86.0293 77.1938 85.7181 77.625 85.3656 78.1688C84.5068 79.4588 82.6131 81.45 81.5368 82.1738C81.0681 82.485 80.6781 82.8563 80.6781 82.9763C80.6593 83.505 80.2093 84.54 79.6618 85.26C79.1331 85.965 79.0956 86.0813 79.1743 86.7038C79.3093 87.6225 79.0168 90.57 78.6681 92.115C78.352 93.2622 77.9197 94.3742 77.3781 95.4338C76.0318 98.2275 75.0156 100.725 74.7606 101.88C74.5764 102.992 74.4587 104.114 74.4081 105.24C74.3481 106.568 74.2131 107.858 74.1156 108.131C73.9806 108.503 73.9806 108.795 74.0968 109.361C74.1943 109.77 74.2543 110.689 74.2318 111.413C74.2131 112.41 74.2918 113.055 74.5843 114.225C75.0906 116.216 75.1881 117.469 74.9556 118.211C74.7981 118.68 74.6443 118.856 74.1156 119.111C72.9418 119.715 69.6231 120.049 67.8268 119.738L67.8306 119.745ZM72.5743 118.144C73.2568 117.949 73.8456 117.364 73.8456 116.835C73.8456 116.599 73.6506 115.916 73.4143 115.313C72.9456 114.161 72.1431 111.113 72.1431 110.606C72.1431 110.351 72.1618 110.333 72.5518 110.546L72.9831 110.783V110.235C72.9205 109.73 72.8087 109.233 72.6493 108.75C72.2781 107.636 72.2406 107.618 69.8743 107.479L68.2731 107.4L67.6881 107.966C67.3664 108.297 67.0845 108.665 66.8481 109.061C66.5931 109.568 66.4956 110.333 66.6531 110.505C66.6906 110.565 67.0843 110.505 67.5118 110.408C67.7656 110.332 68.0274 110.287 68.2918 110.273C68.2918 110.291 67.8606 110.644 67.3168 111.015C64.9731 112.774 64.1518 113.846 64.1518 115.215C64.1518 116.64 65.4981 117.754 67.6093 118.088C69.0531 118.301 71.8656 118.361 72.5706 118.148L72.5743 118.144ZM104.352 115.819C104.937 115.114 104.858 114.394 104.116 113.573C103.684 113.141 103.197 112.77 102.649 112.478C102.102 112.185 101.554 111.851 101.007 111.503C100.017 110.861 98.9994 110.261 97.9581 109.706C97.0581 109.219 96.1806 108.709 95.3218 108.165L94.9693 107.891V102.521C94.9693 97.23 94.9506 97.1513 94.6768 97.23C93.3081 97.6013 91.0431 97.7775 88.1743 97.7175L85.0693 97.68L85.5193 98.775C86.3593 100.845 86.7906 103.62 86.7906 106.804C86.7906 107.996 86.7118 108.424 86.4193 109.264C86.2618 109.673 86.1268 110.085 85.9881 110.494C85.9281 110.67 86.1456 110.805 86.9443 111.041C87.5293 111.218 88.3881 111.394 88.8793 111.45L89.7793 111.548L89.6818 112.448C89.5843 113.464 89.7006 114.536 89.9556 114.87C90.1131 115.065 90.6981 115.144 93.4131 115.26C95.4643 115.358 97.6918 115.571 99.4468 115.826C100.969 116.063 102.612 116.258 103.099 116.258C103.921 116.276 103.999 116.239 104.348 115.826L104.352 115.819ZM73.0843 106.68C73.1631 106.62 73.2793 105.566 73.3206 104.318C73.4781 100.823 73.6131 100.313 75.3718 96.3675C76.8156 93.1463 77.5806 90.1388 77.5206 88.0088L77.4831 86.7375L76.9356 87.2663C75.8031 88.3988 76.5831 86.6213 77.9331 85.0388C78.9493 83.8275 79.3018 83.1638 79.4556 82.0913C79.5343 81.66 79.6918 81.4463 80.3556 80.94C82.8391 79.0639 84.7527 76.5349 85.8831 73.635C86.1568 72.93 86.8581 70.53 87.4468 68.3025C88.5418 64.1813 89.1268 62.4038 89.6556 61.6425C89.8506 61.35 89.9293 61.29 89.8918 61.485C89.6086 62.5324 89.387 63.5955 89.2281 64.6688C89.0706 65.625 88.7781 67.5 88.5831 68.8088C88.2118 71.4863 87.8218 73.2038 87.2931 74.5313L86.9406 75.4313L87.8781 77.8538C88.8531 80.3325 89.3031 82.1325 89.3818 83.8688L89.4418 84.8438L88.6806 85.0013C87.6758 85.1791 86.7792 85.7396 86.1793 86.565C85.5156 87.5213 85.1443 88.305 85.3206 88.4775C85.3993 88.5563 86.3556 88.7325 87.4506 88.8675C89.1493 89.0625 89.7943 89.0625 92.0406 88.9275C93.0156 88.89 93.9756 88.7925 94.9318 88.6538C95.1456 88.575 95.3631 88.1475 95.7118 87.0338C96.5143 84.4763 96.6681 83.5763 96.5706 81.78L96.4918 80.1975L96.9006 79.6688C97.8568 78.4575 98.5993 76.2713 98.9106 73.71C99.2818 70.5863 98.5993 64.0425 97.3281 58.4175C96.7243 55.74 96.4693 54.1388 96.4693 52.9688V51.9338L95.5131 52.0313C92.0743 52.4025 87.9156 52.305 85.3768 51.7763C83.9893 51.5025 80.4943 50.4675 79.7331 50.1338L79.1293 49.86L79.0506 50.5425C78.9906 50.9138 78.9343 51.285 78.8556 51.675C78.7393 52.0838 78.7768 52.1813 79.5006 52.8863C80.4006 53.805 80.6743 54.2738 80.6743 54.8963C80.6743 55.2863 80.4606 55.6013 79.3656 56.7338C78.5805 57.5715 77.7094 58.3244 76.7668 58.98L75.4956 59.8388L74.9481 61.7325C72.9943 68.6663 72.6231 74.9738 73.9131 79.485L74.2243 80.6175L73.5981 81.3975C71.2543 84.345 69.8668 86.5913 69.6531 87.8438C69.5281 88.4605 69.3843 89.0733 69.2218 89.6813C68.7156 91.6163 68.3218 94.4475 68.1493 97.515C68.0291 100.083 67.8604 102.648 67.6431 105.21L67.5456 105.971L68.5206 106.264C69.0681 106.44 69.8893 106.635 70.3581 106.714C71.2356 106.849 72.8593 106.811 73.1106 106.676L73.0843 106.68ZM92.0481 95.9363C93.5706 95.8388 94.9581 95.6025 95.2318 95.37C95.3481 95.2913 95.4868 94.8825 95.5243 94.47L95.6218 93.7275L94.4106 94.0013C93.4543 94.1963 92.4981 94.3125 91.5381 94.3913C89.2318 94.4888 86.9106 94.4288 84.6231 94.1963C83.8618 94.08 83.8618 94.08 84.0943 95.0738C84.2893 95.8163 84.3306 95.8538 86.3218 95.9925C87.6493 96.1088 89.5056 96.09 92.0443 95.9325L92.0481 95.9363ZM90.7768 92.5388C92.7681 92.3625 95.2506 91.935 95.7381 91.68C95.8956 91.6013 96.0306 91.3088 96.0906 90.975L96.2668 89.94L96.3643 89.4525L95.8768 89.55C93.7093 90 92.0668 90.135 88.7856 90.135C85.5831 90.135 85.2118 90.1163 84.3718 89.8238C84.049 89.6877 83.7053 89.6078 83.3556 89.5875C83.2206 89.6663 83.1981 90.78 83.3181 91.56C83.3968 92.0288 83.4756 92.1075 83.9443 92.2425C85.4293 92.6513 87.9306 92.7488 90.7806 92.5163L90.7768 92.5388ZM54.5293 74.9213C59.5281 73.4775 66.0718 69.2363 71.4231 63.9263C73.1631 62.1863 73.3768 61.9538 73.6093 61.1738L73.9206 60.1763C73.9581 60.0975 73.6468 59.9625 73.2381 59.865C72.1656 59.61 71.3443 58.9875 71.3443 58.4213C71.3443 58.0875 71.1493 57.7575 70.5831 57.15C69.6643 56.115 69.4318 55.665 69.3343 54.6713L69.2556 53.8688L68.1606 53.0888C67.5343 52.6388 65.3481 51.4275 63.0231 50.2575C61.2528 49.3939 59.52 48.4555 57.8293 47.445C55.8756 46.1363 54.5668 44.5725 53.8243 42.72C53.6893 42.3488 53.5131 42.0375 53.4531 42.0375C53.2956 42.0375 48.9006 46.275 47.0256 48.2663C42.3981 53.1488 39.2143 57.3863 37.2006 61.3125C36.6943 62.2875 36.1468 63.4425 35.9893 63.87L35.6968 64.65L36.0493 65.9588C36.2631 66.6638 36.7131 67.815 37.0656 68.4975C38.2956 70.92 39.7618 72.3825 42.1843 73.575C44.7831 74.865 47.0856 75.315 50.9331 75.255C53.0031 75.2363 53.6106 75.1763 54.5256 74.9025L54.5293 74.9213ZM15.0756 57.7913C18.3568 54.8813 22.8868 51.6975 28.4368 48.3975C32.0706 46.23 46.1143 39.1988 52.5793 36.3263C53.7531 35.7975 54.8068 35.31 54.9231 35.2538C55.0393 35.175 55.3731 34.335 55.6843 33.3975C57.0531 29.0625 57.7356 28.2038 60.2143 27.6375C60.5256 27.5588 60.6043 27.4613 60.6043 27.15C60.6043 26.5838 60.9943 25.275 61.3281 24.69C61.5831 24.24 61.5831 24.2213 61.3656 24.2813C61.2306 24.3188 60.4093 24.555 59.5506 24.81C47.6368 28.2488 37.2268 32.8163 28.2418 38.52C18.6531 44.6138 13.1256 51.9188 11.5243 60.6675L11.4081 61.3125L12.5818 60.1613C13.2081 59.5163 14.3406 58.4625 15.0831 57.8175L15.0756 57.7913ZM103.456 59.4525C104.412 58.965 105.897 56.7188 106.444 54.9413C106.602 54.315 106.913 53.73 107.363 53.2425C108.807 51.6413 109.999 48.7313 110.018 46.74C110.018 43.635 108.259 42.4425 105.702 43.77C105.368 43.9275 105.098 44.0438 105.057 44.0063C104.922 43.8713 105.642 43.1663 106.523 42.6188C107.674 41.8575 107.892 41.4075 107.892 39.7875C107.909 38.4781 107.52 37.1955 106.778 36.1163C106.426 35.5875 106.291 35.2388 106.347 35.0213L106.699 33.7125C107.187 31.9725 107.011 29.9813 106.249 28.7138C105.117 26.8013 103.729 25.8638 101.794 25.7063L100.662 25.6275L101.326 26.37C103.298 28.5 104.254 31.1738 103.864 33.4613C103.669 34.635 103.493 34.8675 102.361 35.3175L101.697 35.5913L101.776 36.4913C101.911 37.9575 101.659 39.03 100.722 41.0025C100.253 42 99.9006 42.8963 99.9418 42.9938C100.058 43.3275 101.348 43.95 102.364 44.205L103.362 44.4413L102.736 44.655C101.914 44.91 101.738 45.2813 101.738 46.6275C101.738 47.8575 101.914 48.3675 102.811 49.7138C103.219 50.2988 103.493 50.9063 103.534 51.255C103.613 51.8025 103.594 51.84 103.144 51.9975C102.634 52.1407 102.11 52.2262 101.581 52.2525C99.7431 52.3688 99.6081 52.4288 98.7868 53.2088C98.0443 53.9138 98.0256 53.9513 98.0256 54.7313C98.0256 55.8038 98.4343 57.975 98.6893 58.2675C99.0231 58.62 100.876 59.5388 101.599 59.6738C102.224 59.8305 102.883 59.7545 103.456 59.46V59.4525ZM76.4031 57.99C77.5956 57.0525 78.5331 56.115 79.0581 55.3125C79.3918 54.825 79.4106 54.7275 79.2531 54.315C78.9793 53.6888 77.1831 52.0688 76.1856 51.5813C75.5209 51.2835 74.8179 51.0802 74.0968 50.9775L72.8668 50.82L72.1056 49.8638C70.5231 47.91 69.6456 46.3875 68.3931 43.4363C67.2981 40.935 66.3418 39.4725 64.8193 38.025C64.1931 37.44 63.7468 36.9525 63.7843 36.9525C63.8631 36.9525 64.6056 37.3238 65.4643 37.7738C66.8893 38.535 67.0656 38.595 67.7106 38.4975C70.0356 38.2238 72.0868 35.55 72.8293 31.8C73.0431 30.7463 73.4743 29.67 73.9243 29.025C73.9431 29.0063 74.8431 29.5913 75.8968 30.3525C78.5743 32.2463 79.1593 32.5388 80.6818 32.5988C81.6793 32.6363 82.2456 32.5613 84.0418 32.13C87.8706 31.1925 92.0106 30.8213 94.5306 31.155C95.9556 31.35 98.0068 31.9763 99.5293 32.6963C101.033 33.4013 101.326 33.4388 101.813 33.0075C102.222 32.655 102.222 32.5988 102.222 31.29C102.203 29.355 101.498 27.2663 100.426 26.0175C99.8781 25.3725 98.3368 24.3188 96.8106 23.5163C96.268 23.2285 95.728 22.936 95.1906 22.6388C94.4668 22.2075 93.6493 22.2675 91.4218 22.8525C88.8418 23.5163 88.1593 23.5163 85.2118 22.755C82.7106 22.1288 82.5568 22.11 80.0931 22.5C78.7843 22.695 75.5031 22.5788 74.4081 22.2863C73.8606 22.1288 73.3131 21.975 72.7881 21.78C71.8318 21.4088 70.1706 21.3488 68.6668 21.6225C65.6781 22.1513 63.4131 23.7713 62.5918 25.9763C62.1606 27.09 62.2206 27.6188 62.7868 27.9675C63.6868 28.5338 64.8756 30.0788 64.8756 30.6825C64.8756 30.72 64.5831 30.4688 64.2493 30.1163C63.4093 29.2388 62.6481 28.845 61.7481 28.845C61.1658 28.8612 60.5996 29.0397 60.1132 29.3603C59.6269 29.681 59.2398 30.1311 58.9956 30.66C58.7328 31.35 58.5112 32.055 58.3318 32.7713C57.7843 34.7625 57.2968 35.82 56.2618 37.2263C55.3431 38.4975 55.2081 39.0638 55.5381 40.4888C56.3593 44.0813 57.7843 45.5288 63.7393 48.9075C66.8631 50.685 68.4643 51.6825 69.6381 52.56C70.5381 53.2238 70.5568 53.265 70.4781 53.7713C70.3018 54.945 71.0443 56.2125 72.5106 57.2475C72.8818 57.5025 73.1143 57.7763 73.1143 57.9713C73.1143 58.3238 74.1118 58.8113 74.8318 58.8113C75.2406 58.8113 75.5556 58.635 76.3956 57.99H76.4031ZM100.486 51.405C102.751 51.4838 102.867 51.3075 101.659 49.9013C100.388 48.435 100.039 47.2463 100.508 45.9375L100.703 45.4313L99.9006 45.0413C99.6268 44.9063 99.3531 44.7675 99.0793 44.67C98.9443 45.1988 98.8056 45.705 98.6893 46.2338C98.3968 47.4263 98.0443 50.5125 98.0256 51.8213C98.0256 51.9375 98.2206 51.9 98.5543 51.6863C99.0231 51.4125 99.2593 51.375 100.489 51.4125L100.486 51.405ZM92.8881 51.2888C94.2568 51.21 95.6631 51.1125 96.0343 51.0525L96.7168 50.955L96.7956 48.7088C96.9118 45.5063 97.3806 43.6125 98.7681 40.5825C99.7431 38.4338 100.174 36.5588 99.9606 35.1525C99.8818 34.5488 99.8443 34.5075 99.0231 34.155C97.5193 33.5579 95.9533 33.1315 94.3543 32.8838C92.8131 32.67 88.2793 32.7863 86.5806 33.12C85.8756 33.2363 84.5893 33.51 83.7306 33.7238C81.6006 34.2113 80.4681 34.155 78.8481 33.45C77.2468 32.745 76.2306 32.1038 75.2743 31.2038C74.5131 30.4988 74.4343 30.4613 74.2393 30.6975C74.0818 30.8738 74.0031 31.4025 73.9468 32.535C73.8868 34.275 73.6131 35.19 72.8518 36.42C72.6827 36.6731 72.5383 36.9418 72.4206 37.2225C72.4206 37.2825 73.0056 37.965 73.7293 38.7075C76.2306 41.3063 77.4606 41.97 79.4331 41.8313C80.0781 41.7713 80.5281 41.7938 80.5281 41.8688C80.5281 42.0263 79.2568 43.02 78.7318 43.2938C78.4768 43.4288 78.4206 43.5675 78.4581 43.86L78.7693 45.9113C78.9456 47.085 79.0806 47.6288 79.2568 47.7863C79.7256 48.1763 82.1481 49.4288 83.6706 50.0513C85.6618 50.8538 86.7568 51.1463 88.2793 51.2813C90.1543 51.4388 90.1918 51.4388 92.8881 51.2813V51.2888ZM76.7368 49.14C76.7743 49.08 76.6393 47.9475 76.3843 46.6388C76.0731 44.8613 75.8968 44.2163 75.7018 44.04C75.5668 43.9238 74.8431 43.4138 74.1193 42.8888C73.1684 42.205 72.2674 41.4543 71.4231 40.6425L70.0768 39.315L69.3531 39.6863L68.5918 40.095C68.6559 40.4001 68.7606 40.6952 68.9031 40.9725C69.1168 41.4413 69.5481 42.5925 69.8593 43.53C70.6806 45.9713 71.3256 47.145 72.9456 49.2713L73.5493 50.0738L74.7006 50.25C75.3456 50.3475 75.9906 50.4863 76.1668 50.5425C76.4406 50.6588 76.4781 50.6025 76.5568 49.9763C76.5943 49.7025 76.6543 49.41 76.7331 49.1363L76.7368 49.14ZM101.483 24.8438C102.481 24.7463 102.657 24.6075 102.226 24.1613C101.952 23.8875 101.326 23.8688 100.819 24.1013C100.486 24.2588 100.411 24.2175 99.8818 23.6513C99.3343 23.0475 99.2968 23.025 98.6106 23.1038C97.9843 23.1825 97.8868 23.1638 97.8081 22.9088C97.5642 22.4899 97.2611 22.1084 96.9081 21.7763C96.4645 21.2722 95.91 20.8781 95.2881 20.625C94.0768 20.1563 93.3943 20.2163 92.2393 20.8613C88.8981 22.6763 89.0368 22.6575 85.8118 21.8363C82.8043 21.075 80.5581 20.295 79.8343 19.8038C79.2306 19.395 77.9406 18.945 76.8643 18.8063C76.0618 18.69 75.5556 18.8663 74.7943 19.4888L74.3856 19.8225L74.7568 20.4675C75.2631 21.3675 75.2068 21.4238 74.4456 20.76C73.6243 20.0775 72.6493 19.6088 72.0231 19.5863C71.5731 19.5863 70.2456 20.1713 70.0881 20.4263C70.0281 20.505 70.4406 20.6025 70.9881 20.64C71.5543 20.7 72.3343 20.895 72.8631 21.1088C74.2318 21.6938 74.9331 21.8888 76.1818 22.0088C77.5506 22.1438 80.0293 21.99 80.3218 21.7538C80.4793 21.6188 80.9068 21.5963 81.8068 21.675C82.9993 21.7538 83.4868 21.87 86.3181 22.6313C87.9606 23.0813 89.1118 23.04 91.0656 22.515C91.9656 22.26 93.0981 22.0088 93.5668 21.9488C94.3693 21.87 94.5231 21.9113 95.7756 22.4775C97.7668 23.3775 98.8243 23.9438 99.4093 24.4688C99.9943 24.975 100.073 24.975 101.479 24.8588L101.483 24.8438ZM90.3493 21.4275L91.5418 20.8013L91.5043 19.59C91.4856 18.75 91.4443 17.9288 91.4068 17.1113L91.3093 15.8625L90.1168 16.7813C89.4118 17.3288 88.7293 17.7375 88.4368 17.7975C87.5781 17.955 83.3406 17.7975 82.9468 17.5838C82.4223 17.1963 81.9317 16.7647 81.4806 16.2938L80.3856 15.18L80.3668 15.8438C80.3668 16.1963 80.3293 16.8 80.2506 17.1713C80.1531 17.8763 80.1531 17.895 80.9143 18.8513C81.3231 19.38 81.6568 19.8488 81.6568 19.905C81.6568 20.2763 87.3006 22.035 88.5718 22.0538C88.9806 22.0538 89.4906 21.8775 90.3493 21.4275ZM88.0843 16.9913C89.4906 16.7175 90.1731 15.7013 90.7018 13.125C91.2493 10.35 91.5231 5.99625 91.2681 4.14C91.0318 2.46 89.1568 1.7175 85.5831 1.83375C83.3556 1.9125 82.4368 2.12625 81.6756 2.77125C81.2068 3.16125 81.2068 3.2025 80.9931 5.055C80.6031 8.61 81.1881 13.6688 82.2043 15.5625C82.6918 16.4813 83.1231 16.8113 84.0193 16.9688C85.0356 17.145 87.2031 17.145 88.0806 16.9875L88.0843 16.9913Z" fill="black"/>
</svg>
