<svg width="118" height="87" viewBox="0 0 118 87" fill="none" xmlns="http://www.w3.org/2000/svg">
<g clip-path="url(#clip0_13_2988)">
<path d="M101.473 50.0766C97.4031 50.0975 93.8654 51.0694 90.9035 52.5063C89.8163 50.3721 88.7295 48.4708 88.538 47.076C88.3246 45.4493 88.0691 44.4561 88.3246 42.5122C88.5805 40.5683 89.7313 37.8001 89.7098 37.589C89.6888 37.3778 89.4539 36.3846 87.1099 36.3637C84.7659 36.3424 82.7413 36.8073 82.5069 37.42C82.2724 38.0326 81.825 39.4273 81.5266 40.8637C81.1217 42.9771 76.8386 50.5198 74.3881 54.471C73.5993 52.9291 72.9175 51.5765 72.768 50.499C72.5551 48.8722 72.2991 47.879 72.5551 45.9351C72.811 43.9912 73.9617 41.2235 73.9403 41.0119C73.9188 40.8007 73.6843 39.8075 71.3403 39.7866C68.9959 39.7653 66.9713 40.2302 66.7373 40.8429C66.5029 41.4559 66.247 42.8923 65.7571 44.2871C65.2667 45.6818 59.5769 58.275 58.0853 61.5285C57.4824 62.8453 56.8501 64.1487 56.1887 65.4376C56.1887 65.4376 56.1672 65.501 56.1032 65.6066C55.8954 66.0107 55.6824 66.4122 55.4643 66.811V66.8318C55.1444 67.4028 54.8035 67.9307 54.633 67.9307C54.5051 67.9307 54.2706 66.4095 54.6755 64.3387C55.5278 59.9652 57.5524 53.1615 57.5314 52.9291C57.5314 52.8022 57.9148 51.6191 56.2102 51.006C54.5476 50.3934 53.9512 51.4075 53.8017 51.4075C53.6527 51.4075 53.5458 51.7668 53.5458 51.7668C53.5458 51.7668 55.4003 44.118 50.0085 44.118C46.6418 44.118 41.9958 47.7734 39.6943 51.0694C37.078 52.4811 34.4639 53.8968 31.8521 55.3166C30.5953 56.0139 29.2951 56.7113 28.0804 57.3661C27.9949 57.2818 27.9099 57.1758 27.8244 57.0915C21.3034 50.1822 9.24203 45.3012 9.75342 36.0257C9.94537 32.6449 11.1171 23.7705 32.9178 12.9947C50.8609 4.22583 65.1392 6.65549 67.6111 12.0436C71.1484 19.7349 59.9608 34.0183 41.4204 36.0887C34.3455 36.8708 30.6373 34.1661 29.7 33.152C28.7197 32.0953 28.5703 32.0318 28.2079 32.2435C27.6115 32.5606 27.9949 33.5113 28.2079 34.0605C28.7622 35.4969 31.0422 38.0326 34.8994 39.2796C38.3091 40.378 46.5988 40.991 56.6361 37.1454C67.8666 32.8348 76.6467 20.8546 74.0682 10.8183C71.4893 0.633908 54.4411 -2.72556 38.3091 2.95799C28.7197 6.33921 18.32 11.6634 10.8402 18.594C1.95366 26.834 0.54699 33.997 1.12236 36.9976C3.18987 47.6465 18.0006 54.5771 23.9248 59.7114C23.6264 59.8804 23.349 60.0286 23.115 60.1555C20.1526 61.6132 8.85814 67.4658 6.04526 73.6568C2.84894 80.6716 6.55711 85.7009 9.00759 86.3765C16.6154 88.4686 24.4362 84.7076 28.6343 78.4953C32.8323 72.2834 32.321 64.2119 30.3819 60.5144C30.3604 60.4722 30.3394 60.4296 30.2964 60.3875C31.0637 59.9439 31.8521 59.479 32.6194 59.0354C34.0297 58.2088 35.4578 57.4126 36.9029 56.6474C36.1781 58.6126 35.6452 60.958 35.3898 64.3387C35.0699 68.3113 36.7105 73.4665 38.863 75.4947C39.8223 76.3828 40.9516 76.4037 41.6764 76.4037C44.1908 76.4037 45.3206 74.3329 46.5778 71.8819C48.112 68.8818 49.4972 65.3954 49.4972 65.3954C49.4972 65.3954 47.771 74.8191 52.4595 74.8191C54.1641 74.8191 55.8902 72.6214 56.6576 71.5017V71.5226C56.6576 71.5226 56.7001 71.4592 56.7855 71.3114C56.956 71.0368 57.0625 70.8674 57.0625 70.8674V70.8257C57.7443 69.6421 59.279 66.9587 61.559 62.5004C64.4998 56.7534 67.3342 49.5696 67.3342 49.5696C67.3342 49.5696 67.5901 51.3232 68.4635 54.239C68.9753 55.9505 70.0401 57.831 70.8929 59.648C70.2111 60.5991 69.7847 61.127 69.7847 61.127L69.8061 61.1483C69.2518 61.8665 68.6554 62.6481 67.9946 63.4094C65.6716 66.1558 62.9017 69.3045 62.5178 70.2126C62.0699 71.2901 62.1769 72.0722 63.0296 72.7062C63.6475 73.1711 64.7553 73.234 65.885 73.1711C67.9735 73.0229 69.4437 72.5158 70.1681 72.1991C71.2978 71.7976 72.619 71.1846 73.8548 70.276C76.1353 68.6067 77.52 66.2192 77.3925 63.0714C77.3285 61.3386 76.7531 59.6059 76.0498 57.9787C76.2632 57.6833 76.4547 57.3874 76.6681 57.0915C80.2694 51.8724 83.0612 46.1462 83.0612 46.1462C83.0612 46.1462 83.3172 47.8998 84.1905 50.8161C84.6169 52.2951 85.4907 53.901 86.2575 55.4643C82.8693 58.1903 80.7808 61.3594 80.0349 63.4302C78.6927 67.2759 79.7365 69.0082 81.7185 69.4097C82.6134 69.6 83.8921 69.1772 84.8298 68.7757C86.0231 68.3956 87.4298 67.7408 88.7725 66.7684C91.0529 65.0995 93.2475 62.775 93.1195 59.6272C93.0555 58.1903 92.6721 56.7743 92.1392 55.4009C95.0161 54.2182 98.7243 53.563 103.455 54.1122C113.599 55.2953 115.602 61.5706 115.218 64.2123C114.835 66.8531 112.704 68.29 112.001 68.7336C111.297 69.1777 111.063 69.3254 111.127 69.6421C111.212 70.107 111.553 70.0862 112.15 70.0014C112.981 69.8537 117.478 67.8672 117.669 63.0075C117.989 56.7956 112.022 50.0132 101.473 50.0766ZM23.2215 76.2346C19.8542 79.8687 15.1662 81.2421 13.1417 80.0803C10.9682 78.8333 11.8205 73.4665 15.9546 69.6213C18.469 67.2759 21.7083 65.0991 23.8608 63.7683C24.3507 63.4724 25.0755 63.0501 25.9493 62.5217C26.0983 62.437 26.1838 62.3948 26.1838 62.3948L26.6952 62.0776C28.2079 67.5713 26.7592 72.4103 23.2215 76.2346ZM47.7285 59.7114C46.5563 62.543 44.1058 69.7903 42.6142 69.3888C41.3354 69.0508 40.5466 63.5571 42.3582 58.1269C43.2745 55.4009 45.2136 52.147 46.3433 50.8796C48.1759 48.8509 50.2005 48.1744 50.6904 48.9991C51.3087 50.0766 48.4529 57.9365 47.7285 59.7114ZM67.9521 69.3041C67.4617 69.5578 66.9933 69.7269 66.7798 69.6C66.6309 69.5153 66.9933 69.1772 66.9933 69.1772C66.9933 69.1772 69.5292 66.473 70.5305 65.2473C71.1063 64.5291 71.7877 63.684 72.5126 62.7329V63.0075C72.5126 66.2405 69.3583 68.4169 67.9516 69.3041H67.9521ZM83.5511 65.7756C83.1887 65.5219 83.2527 64.6768 84.4674 62.0355C84.9363 61.0001 86.0441 59.2678 87.9412 57.5985C88.1541 58.2746 88.3036 58.9298 88.2821 59.5424C88.2606 63.6205 85.3202 65.1417 83.5511 65.7756Z" fill="#CD6799"/>
</g>
<defs>
<clipPath id="clip0_13_2988">
<rect width="117" height="87" fill="white" transform="translate(0.799988)"/>
</clipPath>
</defs>
</svg>
