<svg width="105" height="100" viewBox="0 0 105 100" fill="none" xmlns="http://www.w3.org/2000/svg">
<path d="M72.7792 69.5627C76.6509 69.1619 79.5882 65.8242 79.4546 61.8184C79.3214 57.8131 75.9833 54.6086 71.9779 54.6086H71.7111C67.5718 54.7422 64.3677 58.2135 64.5013 62.3525C64.6349 64.3553 65.4357 66.091 66.6374 67.2926C62.098 76.2385 55.1554 82.7807 44.7415 88.2549C37.6652 91.9934 30.3222 93.3287 22.9792 92.3943C16.971 91.593 12.298 88.923 9.3603 84.5164C5.08817 77.9742 4.68776 70.8975 8.29268 63.8213C10.8296 58.7475 14.8345 55.009 17.3714 53.1398C16.8374 51.4041 16.0361 48.4668 15.6357 46.3307C-3.72371 60.35 -1.72084 79.3094 4.15375 88.2549C8.55949 94.9311 17.505 99.0701 27.3849 99.0701C30.055 99.0701 32.7251 98.8029 35.3955 98.1357C52.4853 94.7975 65.4361 84.65 72.7792 69.5627ZM96.2775 53.0066C86.1304 41.1234 71.1771 34.5811 54.0873 34.5811H51.9513C50.7496 32.1779 48.2128 30.5754 45.4091 30.5754H45.1419C41.0033 30.709 37.7992 34.1803 37.9324 38.3197C38.066 42.325 41.4037 45.5295 45.4091 45.5295H45.6759C48.6132 45.3959 51.1501 43.5266 52.2181 40.9898H54.6214C64.7685 40.9898 74.3812 43.927 83.0599 49.6684C89.7353 54.0746 94.5419 59.816 97.2119 66.7586C99.4816 72.3664 99.348 77.8406 96.9447 82.5139C93.2066 89.5902 86.9316 93.4623 78.6537 93.4623C73.3132 93.4623 68.2398 91.8598 65.5693 90.6582C64.1009 91.9934 61.4304 94.1295 59.5611 95.4652C65.3025 98.1352 71.1771 99.6041 76.7845 99.6041C89.6017 99.6041 99.0812 92.5275 102.686 85.4512C106.558 77.707 106.291 64.3553 96.2775 53.0066ZM28.4529 71.832C28.5865 75.8377 31.9242 79.0418 35.9296 79.0418H36.1968C40.3357 78.9086 43.5398 75.4369 43.4062 71.2979C43.273 67.2922 39.9349 64.0881 35.9296 64.0881H35.6628C35.3955 64.0881 34.9947 64.0881 34.7283 64.2213C29.2542 55.1422 26.9845 45.2623 27.7857 34.5807C28.3193 26.5697 30.9898 19.6266 35.6628 13.8852C39.5345 8.94508 47.0111 6.5418 52.0849 6.40861C66.2369 6.14139 72.2447 23.7656 72.6455 30.8422C74.3812 31.2426 77.3185 32.1775 79.3214 32.8451C77.7189 11.2156 64.3677 0 51.5509 0C39.5345 0 28.4529 8.67869 24.0468 21.4963C17.9054 38.5865 21.9107 55.009 29.3874 67.9602C28.7201 68.8947 28.3193 70.3635 28.4529 71.8324V71.832Z" fill="#764ABC"/>
</svg>
